<svg width="90" height="13" viewBox="0 0 90 13" fill="none" xmlns="http://www.w3.org/2000/svg">
<path d="M0.0859375 11.8337V1.21367H1.81242V5.60966L5.62808 1.21367H7.73903L3.53164 5.9361L8.23956 11.8337H6.01255L1.81242 6.40761V11.8337H0.0859375Z" fill="#C4C4C4"/>
<path d="M12.2221 5.05835L12.6138 4.83347C12.8846 4.67388 13.0877 4.49011 13.2231 4.28216C13.3585 4.06937 13.4262 3.83241 13.4262 3.57126C13.4262 3.27142 13.3344 3.0272 13.1506 2.83859C12.9668 2.64515 12.7274 2.54843 12.4324 2.54843C12.1084 2.54843 11.8473 2.64515 11.649 2.83859C11.4507 3.03203 11.3516 3.28109 11.3516 3.58577C11.3516 3.73568 11.3782 3.88077 11.4314 4.02101C11.4894 4.16126 11.5765 4.29425 11.6925 4.41999L12.2221 5.05835ZM14.1299 9.69373L11.8086 7.01696L11.5402 7.19831C11.0324 7.52717 10.6769 7.82942 10.4738 8.10508C10.2755 8.3759 10.1764 8.67815 10.1764 9.01184C10.1764 9.48094 10.3408 9.8775 10.6697 10.2015C10.9985 10.5255 11.4072 10.6875 11.8956 10.6875C12.2583 10.6875 12.6235 10.6053 12.991 10.4409C13.3634 10.2765 13.743 10.0274 14.1299 9.69373ZM15.9652 11.8337L15.1092 10.8254C14.6063 11.2558 14.0888 11.575 13.5568 11.7829C13.0297 11.986 12.4518 12.0876 11.8231 12.0876C10.8462 12.0876 10.0507 11.8047 9.43649 11.2389C8.82714 10.673 8.52247 9.9452 8.52247 9.05537C8.52247 8.45086 8.71108 7.89471 9.08829 7.38692C9.4655 6.8743 10.0652 6.36167 10.8873 5.84905L10.4593 5.38479C10.2223 5.12847 10.041 4.84798 9.91526 4.54331C9.78952 4.23864 9.72665 3.92913 9.72665 3.61478C9.72665 2.91839 9.98055 2.34773 10.4883 1.90281C11.001 1.45306 11.6587 1.22818 12.4615 1.22818C13.2594 1.22818 13.8929 1.43129 14.362 1.83752C14.8311 2.23892 15.0657 2.78298 15.0657 3.4697C15.0657 3.98716 14.9013 4.4611 14.5724 4.89151C14.2435 5.31708 13.7188 5.74024 12.9983 6.16097L15.2108 8.72893C15.4235 8.51614 15.6412 8.27434 15.8636 8.00352C16.0861 7.7327 16.3231 7.42077 16.5745 7.06774L17.5901 8.1486C17.3967 8.45811 17.1815 8.75311 16.9445 9.0336C16.7075 9.30926 16.4512 9.56799 16.1756 9.80979L17.9601 11.8337H15.9652Z" fill="#C4C4C4"/>
<path d="M27.9272 6.58897C27.9079 6.50675 27.8764 6.27946 27.8329 5.90708C27.7942 5.59757 27.7604 5.34126 27.7314 5.13815C27.6878 5.37995 27.625 5.62175 27.5427 5.86356C27.4654 6.10536 27.3662 6.352 27.2453 6.60348L24.467 12.2617L21.6887 6.48741C21.5726 6.25044 21.4711 6.02073 21.384 5.79827C21.3018 5.57581 21.2293 5.35577 21.1664 5.13815C21.1615 5.3606 21.1422 5.59515 21.1084 5.84179C21.0793 6.0836 21.0334 6.33749 20.9705 6.60348L19.8316 11.8337H18.243L20.7529 0.763916L23.8867 7.46672C23.935 7.57311 24.0076 7.74963 24.1043 7.99627C24.2059 8.24291 24.3268 8.54758 24.467 8.91028C24.5686 8.60561 24.7282 8.21872 24.9458 7.74963C25.0038 7.62389 25.0473 7.52717 25.0764 7.45946L28.1376 0.763916L30.7055 11.8337H29.1024L27.9272 6.58897Z" fill="#C4C4C4"/>
<path d="M38.3006 10.2741H39.7514C40.5494 10.2741 41.1466 10.2209 41.5432 10.1145C41.9446 10.0081 42.2928 9.82914 42.5878 9.57766C42.9892 9.2343 43.289 8.80873 43.4873 8.30094C43.6904 7.78831 43.792 7.19348 43.792 6.51643C43.792 5.83938 43.6904 5.24696 43.4873 4.73917C43.289 4.22655 42.9892 3.79855 42.5878 3.45519C42.2879 3.20372 41.9277 3.02478 41.5069 2.91839C41.091 2.81199 40.4381 2.7588 39.5483 2.7588H38.3006V10.2741ZM36.5741 11.8337V1.21367H38.9027C40.4164 1.21367 41.4803 1.29105 42.0945 1.4458C42.7135 1.59572 43.2552 1.84961 43.7194 2.20748C44.3336 2.67658 44.7979 3.27867 45.1122 4.01376C45.4314 4.74884 45.591 5.5879 45.591 6.53093C45.591 7.47397 45.4314 8.31061 45.1122 9.04086C44.7979 9.76627 44.3336 10.3659 43.7194 10.8399C43.2552 11.1977 42.7256 11.4541 42.1308 11.6088C41.5408 11.7587 40.6195 11.8337 39.367 11.8337H36.5741Z" fill="#C4C4C4"/>
<path d="M47.5714 11.8337V1.21367H53.498V2.679H49.2978V5.34126H53.498V6.85737H49.2978V10.2886H53.498V11.8337H47.5714Z" fill="#C4C4C4"/>
<path d="M54.869 9.70824L56.2473 9.06987C56.3778 9.54381 56.6172 9.90651 56.9654 10.158C57.3136 10.4046 57.7585 10.528 58.3002 10.528C58.8128 10.528 59.219 10.3853 59.5189 10.1C59.8235 9.81463 59.9759 9.43258 59.9759 8.95381C59.9759 8.32995 59.4584 7.77381 58.4235 7.28536C58.2784 7.21282 58.1672 7.15962 58.0898 7.12577C56.9195 6.55512 56.1385 6.04007 55.7467 5.58065C55.3598 5.11638 55.1664 4.55056 55.1664 3.88318C55.1664 3.01753 55.459 2.3163 56.0442 1.77949C56.6342 1.24269 57.4055 0.974285 58.3582 0.974285C59.1417 0.974285 59.7969 1.12662 60.3241 1.43129C60.8512 1.73113 61.2163 2.16396 61.4194 2.72978L60.0702 3.42617C59.8574 3.09249 59.6228 2.84826 59.3665 2.69351C59.1151 2.53876 58.8249 2.46138 58.496 2.46138C58.0318 2.46138 57.6618 2.58228 57.3862 2.82408C57.1153 3.06589 56.9799 3.3899 56.9799 3.79613C56.9799 4.4345 57.5796 5.02933 58.779 5.58065C58.8708 5.62417 58.9434 5.65802 58.9966 5.6822C60.046 6.16581 60.7666 6.63975 61.1583 7.10401C61.55 7.56344 61.7459 8.13893 61.7459 8.83049C61.7459 9.83639 61.4291 10.6368 60.7956 11.2316C60.1621 11.8216 59.3061 12.1166 58.2276 12.1166C57.3233 12.1166 56.581 11.9086 56.0006 11.4927C55.4251 11.0768 55.0479 10.482 54.869 9.70824Z" fill="#C4C4C4"/>
<path d="M63.661 11.8337V1.21367H65.3875V11.8337H63.661Z" fill="#C4C4C4"/>
<path d="M73.7514 6.39311H77.9588C77.9588 6.46565 77.9612 6.56721 77.9661 6.69778C77.9806 7.04114 77.9878 7.27327 77.9878 7.39417C77.9878 8.88852 77.5599 10.0492 76.7039 10.8761C75.8479 11.7031 74.6413 12.1166 73.0841 12.1166C72.2136 12.1166 71.4374 11.9884 70.7555 11.7321C70.0736 11.4758 69.4763 11.0889 68.9637 10.5715C68.4608 10.0589 68.0739 9.45676 67.8031 8.7652C67.5371 8.07364 67.4041 7.33372 67.4041 6.54544C67.4041 5.74265 67.5395 5.00274 67.8103 4.32568C68.086 3.64863 68.4922 3.05138 69.029 2.53392C69.5465 2.02613 70.1534 1.63925 70.8498 1.37326C71.5462 1.10728 72.2909 0.974285 73.0841 0.974285C73.9207 0.974285 74.6679 1.12662 75.3256 1.43129C75.9881 1.73597 76.5781 2.20265 77.0956 2.83134L75.8334 3.78163C75.4755 3.36572 75.0717 3.05622 74.6219 2.8531C74.1722 2.64998 73.6692 2.54843 73.1131 2.54843C71.9621 2.54843 71.0215 2.91839 70.2912 3.65831C69.5658 4.39339 69.2031 5.35093 69.2031 6.53093C69.2031 7.73028 69.5658 8.70475 70.2912 9.45434C71.0215 10.1991 71.9669 10.5715 73.1276 10.5715C74.1141 10.5715 74.8903 10.3418 75.4562 9.88233C76.022 9.42291 76.3049 8.79664 76.3049 8.00352V7.85118H73.7514V6.39311Z" fill="#C4C4C4"/>
<path d="M79.8086 11.8337V0.792932L86.5549 7.28536C86.7387 7.46913 86.9249 7.66499 87.1135 7.87295C87.3021 8.0809 87.5004 8.31545 87.7084 8.57659V1.21367H89.3043V12.2472L82.4201 5.63868C82.2363 5.45974 82.0574 5.27114 81.8833 5.07286C81.714 4.87458 81.552 4.66663 81.3973 4.449V11.8337H79.8086Z" fill="#C4C4C4"/>
</svg>
