<svg width="56" height="32" viewBox="0 0 56 32" fill="none" xmlns="http://www.w3.org/2000/svg">
<path d="M54.3414 28.0373C54.3236 28.0075 54.3106 27.9751 54.303 27.9413C54.2839 27.9223 54.284 27.9028 54.2645 27.8838C54.2645 27.8648 54.2455 27.8648 54.226 27.8453C54.2871 27.8255 54.3404 27.787 54.3783 27.7352C54.4163 27.6834 54.437 27.621 54.4374 27.5568C54.4339 27.4975 54.4209 27.4391 54.3989 27.3839C54.3907 27.3566 54.3758 27.3318 54.3557 27.3117C54.3355 27.2915 54.3107 27.2767 54.2835 27.2684C54.2069 27.2269 54.1205 27.2071 54.0335 27.2109H53.5531V28.4222H53.8415V27.9413H53.9375C53.976 27.9413 54.0145 27.9413 54.0335 27.9798C54.0615 28.0167 54.0872 28.0552 54.1105 28.0952L54.2645 28.4199H54.5719L54.3414 28.0373ZM53.9185 27.7298H53.803V27.4423H53.9185C54.053 27.4423 54.111 27.4808 54.111 27.5768C54.13 27.6913 54.053 27.7298 53.9185 27.7298Z" fill="#C4C4C4"/>
<path d="M53.9366 26.5375C53.6706 26.5375 53.4106 26.6164 53.1894 26.7642C52.9683 26.9119 52.7959 27.122 52.6941 27.3677C52.5923 27.6135 52.5657 27.8839 52.6176 28.1448C52.6695 28.4056 52.7975 28.6453 52.9856 28.8333C53.1737 29.0214 53.4133 29.1495 53.6742 29.2014C53.9351 29.2533 54.2055 29.2267 54.4513 29.1249C54.697 29.0231 54.907 28.8507 55.0548 28.6296C55.2026 28.4084 55.2815 28.1484 55.2815 27.8824C55.2801 27.5261 55.138 27.1848 54.8861 26.9329C54.6342 26.681 54.2929 26.5389 53.9366 26.5375ZM53.9366 28.9221C53.7312 28.9221 53.5305 28.8612 53.3597 28.7471C53.189 28.633 53.0559 28.4709 52.9773 28.2811C52.8987 28.0914 52.8782 27.8826 52.9182 27.6812C52.9583 27.4798 53.0572 27.2948 53.2024 27.1496C53.3476 27.0044 53.5326 26.9055 53.734 26.8654C53.9355 26.8253 54.1442 26.8459 54.3339 26.9245C54.5237 27.0031 54.6859 27.1362 54.7999 27.3069C54.914 27.4777 54.9749 27.6784 54.9749 27.8838C54.9727 28.1585 54.8626 28.4213 54.6684 28.6156C54.4741 28.8098 54.2113 28.9199 53.9366 28.9221Z" fill="#C4C4C4"/>
<path d="M13.2279 25.7876C13.2664 26.9224 13.9203 27.6528 15.0546 27.6528C15.3697 27.6744 15.6838 27.5994 15.9552 27.438C16.2267 27.2765 16.4424 27.0362 16.5738 26.749H19.0739C18.574 28.6337 16.8433 29.4605 15.0166 29.4605C12.363 29.4605 10.5358 27.8453 10.5358 25.1147C10.5343 24.5403 10.648 23.9715 10.8701 23.4418C11.0923 22.9121 11.4183 22.4323 11.829 22.0307C12.2397 21.6292 12.7268 21.314 13.2614 21.1039C13.7959 20.8938 14.3672 20.793 14.9414 20.8074C17.863 20.8074 19.3257 23.0191 19.2107 25.7881L13.2279 25.7876ZM16.5548 24.2879C16.5618 23.8552 16.3983 23.4372 16.0997 23.1241C15.801 22.811 15.3911 22.628 14.9586 22.6147C14.0163 22.6147 13.4009 23.2686 13.2279 24.2879H16.5548Z" fill="#C4C4C4"/>
<path d="M22.9967 17.98V23.768L25.4388 21.0375H28.5348L25.5348 24.1334L28.9002 29.2296H25.6698L23.6701 25.9411L22.9777 26.614V29.2291H20.3047V17.98H22.9967Z" fill="#C4C4C4"/>
<path d="M43.3803 20.807C44.2341 20.8051 45.0694 21.0564 45.7803 21.5291C46.4913 22.0019 47.0462 22.6749 47.3747 23.463C47.7032 24.251 47.7907 25.1189 47.626 25.9567C47.4613 26.7945 47.0519 27.5646 46.4495 28.1697C45.8471 28.7748 45.0788 29.1877 44.2418 29.3562C43.4048 29.5246 42.5366 29.4411 41.747 29.1161C40.9574 28.7912 40.2819 28.2394 39.806 27.5305C39.33 26.8217 39.0749 25.9876 39.073 25.1337C39.0523 24.5616 39.1493 23.9913 39.3582 23.4583C39.5671 22.9252 39.8833 22.4408 40.2872 22.0351C40.6911 21.6294 41.1741 21.311 41.7062 21.0997C42.2383 20.8884 42.8081 20.7888 43.3803 20.807ZM43.3803 27.3069C44.6496 27.3069 45.015 26.1916 45.015 25.1337C45.015 24.0954 44.6306 22.9416 43.3803 22.9416C42.13 22.9416 41.7651 24.0954 41.7651 25.1337C41.7461 26.1916 42.1305 27.3069 43.3803 27.3069Z" fill="#C4C4C4"/>
<path d="M6.67049 17.98V21.0954C6.14812 20.8992 5.59375 20.802 5.03578 20.8088C3.89083 20.8088 2.79278 21.2637 1.98318 22.0733C1.17358 22.8829 0.71875 23.9809 0.71875 25.1259C0.71875 26.2708 1.17358 27.3689 1.98318 28.1785C2.79278 28.9881 3.89083 29.4429 5.03578 29.4429C5.63145 29.4505 6.22378 29.3528 6.7855 29.1544C8.34323 28.5585 9.26609 27.6162 9.34307 25.8275V17.98H6.67049ZM5.03578 27.3064C3.78366 27.3064 3.42054 26.1911 3.42054 25.1333C3.42054 24.095 3.80499 22.9411 5.03578 22.9411C6.30506 22.9411 6.67049 24.095 6.67049 25.1333C6.67049 26.1911 6.28604 27.3064 5.03578 27.3064Z" fill="#C4C4C4"/>
<path d="M32.0927 31.9601V28.8465C32.6149 29.0434 33.1693 29.1412 33.7274 29.135C34.572 29.1358 35.3982 28.8888 36.1039 28.4247C36.8095 27.9605 37.3634 27.2996 37.6972 26.5238C38.0309 25.7479 38.1297 24.8912 37.9814 24.0598C37.8331 23.2283 37.4441 22.4586 36.8627 21.8461C36.2813 21.2335 35.5329 20.8049 34.7104 20.6134C33.8878 20.4218 33.0271 20.4758 32.2349 20.7686C31.4427 21.0614 30.7538 21.5801 30.2534 22.2606C29.7531 22.941 29.4634 23.7533 29.4201 24.5967V32H32.0931L32.0927 31.9601ZM33.7464 22.6142C34.9985 22.6142 35.3616 23.7295 35.3616 24.7873C35.3616 25.8257 34.9772 26.9795 33.7464 26.9795C32.4771 26.9795 32.1117 25.8257 32.1117 24.7873C32.0927 23.749 32.4771 22.6142 33.7464 22.6142Z" fill="#C4C4C4"/>
<path d="M48.9379 17.98H51.6109V29.2296H48.9379V17.98Z" fill="#C4C4C4"/>
<path d="M27.9964 1.01506e-05C25.957 0.0315259 24.0119 0.863777 22.5809 2.31709C21.1498 3.7704 20.3477 5.72819 20.3477 7.76779C20.3477 9.80738 21.1498 11.7652 22.5809 13.2185C24.0119 14.6718 25.957 15.504 27.9964 15.5356C29.5071 15.54 30.9854 15.0985 32.2462 14.2663C32.2272 14.2473 32.2272 14.2278 32.2077 14.2088C32.0076 13.867 31.9014 13.4784 31.8996 13.0824C31.8979 12.6863 32.0008 12.2969 32.1979 11.9534C32.395 11.6098 32.6792 11.3244 33.022 11.126C33.3648 10.9276 33.7538 10.8232 34.1499 10.8234C34.4387 10.8261 34.7249 10.8782 34.9962 10.9774C35.0152 10.9774 35.0347 10.9964 35.0537 10.9964C35.5978 9.81393 35.8355 8.51352 35.7449 7.21503C35.6543 5.91653 35.2383 4.66174 34.5353 3.56628C33.8322 2.47083 32.8648 1.56997 31.722 0.946721C30.5793 0.323477 29.298 -0.00209565 27.9964 1.01506e-05ZM29.6311 11.4226H28.379C28.2529 11.4242 28.1279 11.3994 28.012 11.3497C27.8961 11.3 27.7919 11.2266 27.7061 11.1341C27.5266 10.9556 27.4232 10.7144 27.4176 10.4612C27.4164 10.3346 27.4404 10.2091 27.4883 10.0919C27.5362 9.97468 27.6069 9.86821 27.6964 9.77869C27.786 9.68918 27.8924 9.61841 28.0096 9.57054C28.1268 9.52266 28.2524 9.49864 28.379 9.49988H29.6311C29.9877 9.49895 30.3342 9.38215 30.6186 9.1671C30.903 8.95205 31.1098 8.65039 31.2079 8.30759L31.2269 8.23061C31.2651 8.07898 31.2844 7.92322 31.2844 7.76686C31.2871 7.59069 31.2611 7.41525 31.2074 7.24746V7.22845C31.1069 6.88706 30.8995 6.58696 30.6156 6.37232C30.3318 6.15768 29.9865 6.03984 29.6306 6.03615H25.8233C25.7753 6.03609 25.7277 6.0455 25.6834 6.06384C25.639 6.08219 25.5987 6.1091 25.5647 6.14305C25.5308 6.17699 25.5039 6.2173 25.4855 6.26167C25.4672 6.30603 25.4578 6.35358 25.4578 6.40158V10.4399C25.4578 10.6949 25.3565 10.9395 25.1762 11.1198C24.9959 11.3002 24.7513 11.4015 24.4963 11.4015C24.2412 11.4015 23.9966 11.3002 23.8163 11.1198C23.636 10.9395 23.5347 10.6949 23.5347 10.4399V5.09613C23.5334 4.96954 23.5575 4.84398 23.6053 4.72678C23.6532 4.60958 23.724 4.50311 23.8135 4.4136C23.903 4.32408 24.0095 4.25331 24.1267 4.20544C24.2439 4.15757 24.3694 4.13355 24.496 4.13479H29.6306C30.1055 4.13391 30.5757 4.22774 31.0138 4.4108C31.452 4.59385 31.8492 4.86245 32.1823 5.20087C32.5153 5.5393 32.7776 5.94075 32.9536 6.38175C33.1297 6.82274 33.216 7.29442 33.2075 7.76918C33.2163 8.24488 33.1303 8.71757 32.9546 9.15973C32.7789 9.60188 32.5171 10.0047 32.1842 10.3447C31.8514 10.6847 31.4543 10.9551 31.016 11.1401C30.5776 11.3252 30.1069 11.4212 29.6311 11.4226Z" fill="#C4C4C4"/>
<path d="M35.7651 13.0953C35.7651 13.4148 35.6704 13.7271 35.4929 13.9927C35.3154 14.2583 35.0631 14.4653 34.768 14.5876C34.4728 14.7099 34.1481 14.7418 33.8348 14.6795C33.5214 14.6172 33.2336 14.4634 33.0077 14.2375C32.7818 14.0116 32.628 13.7238 32.5657 13.4104C32.5033 13.0971 32.5353 12.7723 32.6576 12.4772C32.7798 12.182 32.9869 11.9298 33.2525 11.7523C33.5181 11.5748 33.8304 11.4801 34.1499 11.4801C34.3543 11.4775 34.5571 11.5168 34.7458 11.5956C35.0446 11.7173 35.3007 11.9246 35.4821 12.1914C35.6634 12.4582 35.7619 12.7727 35.7651 13.0953Z" fill="#C4C4C4"/>
</svg>
