<svg width="75" height="15" viewBox="0 0 75 15" fill="none" xmlns="http://www.w3.org/2000/svg">
<path fill-rule="evenodd" clip-rule="evenodd" d="M66.3112 1.28499L61.1217 13.69H63.8933L64.5375 12.0027H70.6286L71.2719 13.69H74.0427L68.8536 1.28499H66.3112ZM67.5826 4.01992L69.9213 10.1489H65.2435L67.5826 4.01992Z" fill="#C4C4C4"/>
<path fill-rule="evenodd" clip-rule="evenodd" d="M34.479 3.4815H31.4564V7.80992H34.5412C36.1146 7.80992 37.0669 7.10563 37.0669 5.65572C37.0669 4.22839 36.0942 3.4815 34.479 3.4815ZM28.9511 1.28767H34.5625C37.709 1.28767 39.6553 2.84026 39.6553 5.55219C39.6553 7.39578 38.7447 8.6595 37.3153 9.34249V9.52911L40.2765 13.4621V13.711H37.4406L34.6864 9.92194H31.4564V13.711H28.9511V1.28767Z" fill="#C4C4C4"/>
<path fill-rule="evenodd" clip-rule="evenodd" d="M45.3618 3.4815V11.5154H47.5769C49.9795 11.5154 51.76 10.1086 51.76 7.49889C51.76 4.8905 49.9795 3.4815 47.5769 3.4815H45.3618ZM47.7431 13.711H42.8569V1.28767H47.7431C51.8218 1.28767 54.3484 3.85473 54.3484 7.49889C54.3484 11.1431 51.8218 13.711 47.7431 13.711Z" fill="#C4C4C4"/>
<path fill-rule="evenodd" clip-rule="evenodd" d="M56.8711 13.7112H59.3764V1.2875H56.8711V13.7112Z" fill="#C4C4C4"/>
<path fill-rule="evenodd" clip-rule="evenodd" d="M19.7725 0.987549C19.1807 0.987549 14.5847 0.995218 12.2912 7.0718C10.5456 11.6912 7.30492 11.5979 7.17838 11.5979L7.09615 11.5949C4.81626 11.5949 3.10304 9.75731 3.10304 7.49872C3.10304 5.24056 4.81626 3.40336 7.09615 3.40336C8.14726 3.40336 9.14724 3.79406 9.91544 4.50346L11.3636 2.56869C10.1762 1.55124 8.67302 0.987549 7.09615 0.987549C3.38211 0.987549 0.544922 3.6786 0.544922 7.49872C0.544922 11.1919 3.27389 14.0099 7.06845 14.0099C7.0987 14.0099 7.14003 14.0125 7.19201 14.0125C8.12638 14.0125 12.3751 13.6852 14.5502 7.9265C16.2945 3.30664 19.5395 3.4025 19.6635 3.4008L19.7453 3.40336C22.0256 3.40336 23.7516 5.24056 23.7516 7.49872C23.7516 9.75731 22.0256 11.5949 19.7453 11.5949L19.6635 11.5979C19.6439 11.5962 17.8139 11.6542 16.1705 9.83315L14.932 12.0155C17.0789 13.9929 19.3716 14.0099 19.7704 14.0099C23.5053 14.0099 26.2961 11.3367 26.2961 7.49872C26.2961 3.75017 23.6314 0.987549 19.7725 0.987549Z" fill="#C4C4C4"/>
</svg>
