<svg width="141" height="17" viewBox="0 0 141 17" fill="none" xmlns="http://www.w3.org/2000/svg">
<path fill-rule="evenodd" clip-rule="evenodd" d="M9.62487 9.59724L11.8133 5.09272C13.0171 2.61516 14.0018 0.538851 14.0018 0.478567C14.0018 0.418002 10.9436 0.368652 7.20535 0.368652H0.40918L9.62487 9.59724ZM19.345 0.578947C19.3537 0.694469 20.3317 2.78172 21.518 5.21693L23.6754 9.64462L32.9219 0.368652H26.1257C22.3875 0.368652 19.3363 0.463425 19.345 0.578947ZM33.8284 2.82209C33.7477 3.09211 32.9017 5.07926 31.9484 7.23829C29.3822 13.0492 29.4876 12.4256 31.0721 12.4256C32.36 12.4256 32.4393 12.3807 32.6872 11.5143L32.9477 10.603L37.5041 10.4409L37.8316 11.4333C38.1409 12.3703 38.2281 12.4256 39.3993 12.4256C40.0812 12.4256 40.6417 12.3311 40.6448 12.2153C40.6479 12.0995 39.8084 9.82828 38.7788 7.16819L36.9071 2.33141H35.4412C34.2877 2.33141 33.9439 2.43599 33.8284 2.82209ZM94.7551 12.4256H97.2786V8.50006H98.5494C100.094 8.50006 101.613 7.90534 102.023 7.14015C102.189 6.82891 102.326 5.99194 102.326 5.28058C102.326 3.01753 101.054 2.34094 96.7879 2.33449L94.7551 2.33141V12.4256ZM113.249 2.4015C113.243 2.43992 113.211 4.71138 113.179 7.44858L113.121 12.4256H115.224V2.33141H114.242C113.703 2.33141 113.256 2.36309 113.249 2.4015ZM124.477 12.4256H126.693L126.86 9.03617L128.092 10.7309C129.282 12.3675 129.367 12.4256 130.579 12.4256H131.833L131.048 11.3741C130.616 10.7959 130.032 10.0209 129.752 9.65219C129.246 8.9885 129.251 8.96859 130.274 7.68944C130.842 6.97864 131.425 6.23953 131.571 6.04662C131.773 5.77884 131.537 5.69613 130.573 5.69613C129.365 5.69613 129.258 5.76594 128.085 7.30839L126.86 8.92065L126.58 2.4716L124.477 2.29748V12.4256ZM16.2982 4.29416C16.1463 4.6797 15.752 5.67397 15.422 6.50366C15.0923 7.33334 14.8755 8.06517 14.9403 8.13022C15.0053 8.19499 15.821 8.21013 16.753 8.16387L18.4477 8.07947L17.5115 5.83632C16.6406 3.7502 16.5556 3.64224 16.2982 4.29416ZM99.4741 4.53922C99.6861 4.67353 99.8072 5.1258 99.7545 5.58649C99.6704 6.32224 99.552 6.40496 98.4703 6.48319L97.2786 6.56955V5.43171C97.2786 4.33425 97.3109 4.29444 98.1899 4.29836C98.6912 4.30089 99.2691 4.40912 99.4741 4.53922ZM36.6074 8.1148C36.7672 8.75129 36.7106 8.78045 35.3232 8.78045C33.6851 8.78045 33.698 8.84298 34.8213 6.30318L35.3989 4.99739L35.9196 6.22326C36.2062 6.89761 36.5154 7.74888 36.6074 8.1148ZM85.0815 5.6765C83.1563 6.14223 82.2776 7.25371 82.2776 9.22291C82.2776 11.532 84.3466 12.9849 87.0555 12.5787C88.2045 12.4065 88.306 12.3252 88.306 11.5805C88.306 10.7749 88.2971 10.7707 86.9391 10.9316C85.7887 11.0679 85.4774 10.9989 84.9764 10.4979C84.1809 9.70238 84.2238 8.63128 85.0854 7.76963C85.7048 7.15024 85.9426 7.08772 87.0482 7.25343C88.2606 7.43541 88.306 7.41634 88.306 6.72264C88.306 6.12989 88.1207 5.95128 87.2546 5.71099C86.6764 5.55032 86.14 5.43115 86.0629 5.44601C85.9858 5.46088 85.5442 5.56462 85.0815 5.6765ZM119.039 5.68211C118.592 5.76706 117.969 6.18317 117.653 6.60684C116.811 7.73599 117.247 8.71933 119.015 9.67659C119.783 10.0927 120.411 10.5974 120.411 10.7982C120.411 11.283 119.319 11.4178 118.292 11.0598C117.524 10.7923 117.467 10.8203 117.467 11.4658C117.467 12.3566 118.553 12.8047 120.26 12.6179C121.692 12.4612 122.514 11.68 122.514 10.4751C122.514 9.59359 122.024 9.09253 120.323 8.23733C119.657 7.90254 119.164 7.47774 119.228 7.29325C119.356 6.91892 120.636 6.86873 121.603 7.20015C122.148 7.38718 122.234 7.31988 122.234 6.70162C122.234 6.14868 122.059 5.95044 121.463 5.82483C120.107 5.5391 119.866 5.52509 119.039 5.68211ZM43.2749 6.09653C41.8238 6.72825 41.549 8.63156 42.7483 9.74276C43.3234 10.2761 43.3755 10.4286 43.0287 10.5618C42.5593 10.7421 42.4331 11.8648 42.8823 11.8648C43.0365 11.8648 43.1627 11.991 43.1627 12.1452C43.1627 12.2994 42.9762 12.4256 42.7486 12.4256C42.1382 12.4256 41.4013 13.6971 41.6172 14.3777C41.8967 15.2581 43.2182 15.7903 45.1255 15.7903C47.85 15.7903 49.1814 14.7225 48.6287 12.981C48.4086 12.2876 46.9402 11.5844 45.7118 11.5844C44.7719 11.5844 44.2944 11.0867 44.8793 10.7163C45.0918 10.5814 45.5957 10.4695 45.9989 10.467C47.2447 10.4597 48.2098 9.46994 48.2098 8.1992C48.2098 7.40736 48.3278 7.09809 48.6304 7.09809C48.892 7.09809 49.051 6.8334 49.051 6.39711C49.051 5.70201 49.0305 5.69612 46.5975 5.70706C45.179 5.71351 43.7773 5.87782 43.2749 6.09653ZM50.7333 12.4256H52.9765L52.9826 10.6731C52.9911 8.35818 53.5821 7.50186 55.0121 7.73374C55.9349 7.88347 56.0109 7.83861 56.1693 7.04678C56.3883 5.951 56.2083 5.69613 55.2143 5.69613C54.6883 5.69613 54.1496 5.96727 53.6887 6.4644L52.9765 7.23268V6.4644C52.9765 5.75501 52.8904 5.69613 51.8549 5.69613H50.7333V12.4256ZM59.0767 6.18822C57.4457 7.19931 57.0469 9.6679 58.2515 11.2975C58.9144 12.1942 60.8098 12.8243 62.1108 12.5803C62.6523 12.4786 63.4809 12.0512 63.9519 11.6304C65.5947 10.1625 65.2667 7.10734 63.3603 6.12148C62.2656 5.55537 60.0413 5.59014 59.0767 6.18822ZM67.2606 6.27289C66.8419 6.69152 66.7073 7.1337 66.7699 7.88516C66.8486 8.83373 66.9802 8.97841 68.3375 9.60929C69.3184 10.0655 69.7897 10.4443 69.7325 10.7309C69.6377 11.2039 68.439 11.2956 67.3256 10.9148C66.7334 10.7124 66.6818 10.7651 66.7648 11.4888C66.8436 12.1774 67.0183 12.3196 68.0566 12.5374C69.8135 12.9062 71.3436 12.386 71.7255 11.29C72.193 9.94969 71.7076 9.10767 70.0687 8.41538C69.1297 8.01862 68.6892 7.67654 68.7466 7.38914C68.8389 6.92705 70.1107 6.83228 70.9917 7.22175C71.386 7.39587 71.4824 7.30082 71.4824 6.73751C71.4824 5.89801 71.0433 5.69613 69.2163 5.69613C68.1985 5.69613 67.6862 5.84726 67.2606 6.27289ZM74.5886 6.47225C73.1354 7.92553 73.2887 10.7544 74.8853 11.9388C75.8577 12.6605 77.791 12.8442 79.1932 12.3487C80.0818 12.0344 80.3336 11.7938 80.4054 11.1899L80.4957 10.4275L79.648 10.8657C78.4432 11.4888 76.9327 11.4268 76.2317 10.7258C75.2613 9.75538 75.6732 9.48816 78.2727 9.40096L80.6718 9.32021L80.4556 8.41959C79.9461 6.29729 79.1397 5.69613 76.8023 5.69613C75.6056 5.69613 75.2347 5.82623 74.5886 6.47225ZM104.681 6.64946C103.85 7.48055 103.728 7.78337 103.728 9.01122C103.728 10.7466 104.631 11.9733 106.272 12.4648C107.731 12.902 109.325 12.4312 110.296 11.2774C110.862 10.6053 111.018 10.1154 111.018 9.01122C111.018 7.78337 110.896 7.48055 110.065 6.64946C109.186 5.77043 108.976 5.69613 107.373 5.69613C105.769 5.69613 105.56 5.77043 104.681 6.64946ZM134.08 5.98521C133.629 6.16662 133.449 6.47085 133.449 7.05379V7.86889L134.587 7.30586C135.509 6.84994 135.856 6.802 136.41 7.05463C137.421 7.51504 137.257 8.15377 136.043 8.48576C135.465 8.64418 134.582 9.02552 134.08 9.33367C133.333 9.79295 133.169 10.07 133.169 10.8727C133.169 12.3075 134.185 12.9252 135.825 12.487C136.682 12.2576 137.251 12.2509 137.829 12.4637C138.9 12.8577 140.179 12.3829 140.179 11.5914C140.179 11.2737 139.993 11.0236 139.758 11.0236C139.427 11.0236 139.338 10.6322 139.338 9.18254C139.338 7.40372 139.028 6.34047 138.384 5.91063C137.955 5.62378 134.845 5.67762 134.08 5.98521ZM45.6717 7.09024C47.2738 7.94768 46.166 9.83052 44.4475 9.17104C43.8387 8.93747 43.8724 7.48307 44.4946 7.12052C45.1081 6.7633 45.0629 6.76442 45.6717 7.09024ZM62.2774 7.56214C62.9201 8.14368 62.9635 9.96904 62.3497 10.5831C61.3215 11.611 59.7059 10.7398 59.7059 9.15758C59.7059 8.14115 60.5112 7.09809 61.296 7.09809C61.5537 7.09809 61.9953 7.30698 62.2774 7.56214ZM78.1558 7.43456C78.8722 8.15097 78.5234 8.50006 77.0903 8.50006C75.5837 8.50006 75.5378 8.46445 75.9785 7.64037C76.3074 7.02575 77.6228 6.90154 78.1558 7.43456ZM108.334 7.53831C108.996 8.20032 109.15 9.20637 108.726 10.0916C108.418 10.7356 108.165 10.8834 107.373 10.8834C106.581 10.8834 106.328 10.7356 106.02 10.0916C105.132 8.24013 106.988 6.1927 108.334 7.53831ZM137.042 10.2525C136.969 11.0124 136.826 11.1787 136.182 11.2527C135.113 11.3755 134.817 10.5551 135.677 9.85828C136.673 9.05187 137.145 9.18814 137.042 10.2525ZM13.1971 11.7293C12.8999 12.5512 12.9001 12.8195 13.1976 13.2101C13.9191 14.1564 16.4578 16.6315 16.707 16.6315C16.8472 16.6315 17.7781 15.8082 18.7752 14.8022L20.5882 12.9729L19.4695 10.8834L13.5602 10.7255L13.1971 11.7293ZM46.3642 13.1565C46.6082 13.2502 46.8078 13.5522 46.8078 13.8275C46.8078 14.704 44.8493 15.0035 43.8578 14.2784C43.4044 13.947 43.3803 13.8205 43.6983 13.4372C44.0717 12.9872 45.5245 12.8344 46.3642 13.1565Z" fill="#C4C4C4"/>
</svg>
